<mxfile host="app.diagrams.net" agent="Mozilla/5.0 (Windows NT 10.0; Win64; x64) AppleWebKit/537.36 (KHTML, like Gecko) Chrome/139.0.0.0 Safari/537.36" version="28.1.0">
  <diagram name="Página-1" id="11aGm9SkkB86KHjLV3OP">
    <mxGraphModel dx="2316" dy="753" grid="1" gridSize="10" guides="1" tooltips="1" connect="1" arrows="1" fold="1" page="1" pageScale="1" pageWidth="827" pageHeight="1169" math="0" shadow="0">
      <root>
        <mxCell id="0" />
        <mxCell id="1" parent="0" />
        <mxCell id="yNXOAHpUrxnPB8L_Ha3r-6" value="" style="edgeStyle=orthogonalEdgeStyle;rounded=0;orthogonalLoop=1;jettySize=auto;html=1;" parent="1" source="yNXOAHpUrxnPB8L_Ha3r-1" target="yNXOAHpUrxnPB8L_Ha3r-4" edge="1">
          <mxGeometry relative="1" as="geometry" />
        </mxCell>
        <mxCell id="yNXOAHpUrxnPB8L_Ha3r-1" value="&lt;h3 style=&quot;color: rgb(0, 0, 0);&quot;&gt;&lt;font style=&quot;vertical-align: inherit;&quot; dir=&quot;auto&quot;&gt;&lt;font style=&quot;vertical-align: inherit;&quot; dir=&quot;auto&quot;&gt;Quality Vision Tecnologies S.A.S&lt;/font&gt;&lt;/font&gt;&lt;/h3&gt;" style="rounded=1;whiteSpace=wrap;html=1;fillColor=#67AB9F;" parent="1" vertex="1">
          <mxGeometry x="310" y="40" width="230" height="30" as="geometry" />
        </mxCell>
        <mxCell id="yNXOAHpUrxnPB8L_Ha3r-9" style="edgeStyle=orthogonalEdgeStyle;rounded=0;orthogonalLoop=1;jettySize=auto;html=1;" parent="1" source="yNXOAHpUrxnPB8L_Ha3r-4" target="yNXOAHpUrxnPB8L_Ha3r-7" edge="1">
          <mxGeometry relative="1" as="geometry" />
        </mxCell>
        <mxCell id="yNXOAHpUrxnPB8L_Ha3r-10" style="edgeStyle=orthogonalEdgeStyle;rounded=0;orthogonalLoop=1;jettySize=auto;html=1;entryX=0.5;entryY=0;entryDx=0;entryDy=0;" parent="1" source="yNXOAHpUrxnPB8L_Ha3r-4" target="yNXOAHpUrxnPB8L_Ha3r-8" edge="1">
          <mxGeometry relative="1" as="geometry" />
        </mxCell>
        <mxCell id="yNXOAHpUrxnPB8L_Ha3r-4" value="&lt;font style=&quot;color: rgb(0, 0, 0);&quot;&gt;&lt;b&gt;Junta Directiva&lt;/b&gt;&lt;/font&gt;" style="rounded=1;whiteSpace=wrap;html=1;fillColor=#6666FF;fontColor=#ffffff;strokeColor=#3700CC;" parent="1" vertex="1">
          <mxGeometry x="380" y="100" width="90" height="30" as="geometry" />
        </mxCell>
        <mxCell id="6m8UZrbuLrnwmyDjbOqj-2" style="edgeStyle=orthogonalEdgeStyle;rounded=0;orthogonalLoop=1;jettySize=auto;html=1;entryX=0.5;entryY=0;entryDx=0;entryDy=0;" edge="1" parent="1" source="yNXOAHpUrxnPB8L_Ha3r-7" target="6m8UZrbuLrnwmyDjbOqj-1">
          <mxGeometry relative="1" as="geometry" />
        </mxCell>
        <mxCell id="6m8UZrbuLrnwmyDjbOqj-5" style="edgeStyle=orthogonalEdgeStyle;rounded=0;orthogonalLoop=1;jettySize=auto;html=1;entryX=0.5;entryY=0;entryDx=0;entryDy=0;" edge="1" parent="1" source="yNXOAHpUrxnPB8L_Ha3r-7" target="6m8UZrbuLrnwmyDjbOqj-3">
          <mxGeometry relative="1" as="geometry" />
        </mxCell>
        <mxCell id="6m8UZrbuLrnwmyDjbOqj-7" style="edgeStyle=orthogonalEdgeStyle;rounded=0;orthogonalLoop=1;jettySize=auto;html=1;entryX=0.5;entryY=0;entryDx=0;entryDy=0;" edge="1" parent="1" source="yNXOAHpUrxnPB8L_Ha3r-7" target="6m8UZrbuLrnwmyDjbOqj-6">
          <mxGeometry relative="1" as="geometry" />
        </mxCell>
        <mxCell id="yNXOAHpUrxnPB8L_Ha3r-7" value="&lt;font style=&quot;vertical-align: inherit;&quot; dir=&quot;auto&quot;&gt;&lt;font style=&quot;vertical-align: inherit; color: rgb(0, 0, 0);&quot; dir=&quot;auto&quot;&gt;&lt;b&gt;Gerente General&lt;/b&gt;&lt;/font&gt;&lt;/font&gt;" style="rounded=1;whiteSpace=wrap;html=1;fillColor=#1ba1e2;strokeColor=#006EAF;fontColor=#ffffff;" parent="1" vertex="1">
          <mxGeometry x="290" y="190" width="110" height="40" as="geometry" />
        </mxCell>
        <mxCell id="6m8UZrbuLrnwmyDjbOqj-10" style="edgeStyle=orthogonalEdgeStyle;rounded=0;orthogonalLoop=1;jettySize=auto;html=1;entryX=0.5;entryY=0;entryDx=0;entryDy=0;" edge="1" parent="1" source="yNXOAHpUrxnPB8L_Ha3r-8" target="6m8UZrbuLrnwmyDjbOqj-8">
          <mxGeometry relative="1" as="geometry" />
        </mxCell>
        <mxCell id="6m8UZrbuLrnwmyDjbOqj-12" style="edgeStyle=orthogonalEdgeStyle;rounded=0;orthogonalLoop=1;jettySize=auto;html=1;entryX=0.5;entryY=0;entryDx=0;entryDy=0;" edge="1" parent="1" source="yNXOAHpUrxnPB8L_Ha3r-8" target="6m8UZrbuLrnwmyDjbOqj-11">
          <mxGeometry relative="1" as="geometry" />
        </mxCell>
        <mxCell id="yNXOAHpUrxnPB8L_Ha3r-8" value="&lt;font style=&quot;color: rgb(0, 0, 0);&quot;&gt;&lt;b&gt;Gerente CTO&lt;/b&gt;&lt;/font&gt;" style="rounded=1;whiteSpace=wrap;html=1;fillColor=#1ba1e2;strokeColor=#006EAF;fontColor=#ffffff;" parent="1" vertex="1">
          <mxGeometry x="440" y="190" width="100" height="40" as="geometry" />
        </mxCell>
        <mxCell id="6m8UZrbuLrnwmyDjbOqj-1" value="Director Comercial" style="rounded=1;whiteSpace=wrap;html=1;fillColor=#d5e8d4;strokeColor=#00CC00;" vertex="1" parent="1">
          <mxGeometry x="-30" y="300" width="120" height="40" as="geometry" />
        </mxCell>
        <mxCell id="6m8UZrbuLrnwmyDjbOqj-3" value="Líder de Markething Digital" style="rounded=1;whiteSpace=wrap;html=1;fillColor=#d5e8d4;strokeColor=#00CC00;" vertex="1" parent="1">
          <mxGeometry x="120" y="300" width="120" height="40" as="geometry" />
        </mxCell>
        <mxCell id="6m8UZrbuLrnwmyDjbOqj-6" value="Gerente Administrativo y Financiero" style="rounded=1;whiteSpace=wrap;html=1;fillColor=#d5e8d4;strokeColor=#00CC00;" vertex="1" parent="1">
          <mxGeometry x="282.5" y="300" width="125" height="40" as="geometry" />
        </mxCell>
        <mxCell id="6m8UZrbuLrnwmyDjbOqj-15" style="edgeStyle=orthogonalEdgeStyle;rounded=0;orthogonalLoop=1;jettySize=auto;html=1;entryX=0.5;entryY=0;entryDx=0;entryDy=0;" edge="1" parent="1" source="6m8UZrbuLrnwmyDjbOqj-8" target="6m8UZrbuLrnwmyDjbOqj-13">
          <mxGeometry relative="1" as="geometry" />
        </mxCell>
        <mxCell id="6m8UZrbuLrnwmyDjbOqj-18" style="edgeStyle=orthogonalEdgeStyle;rounded=0;orthogonalLoop=1;jettySize=auto;html=1;entryX=0.5;entryY=0;entryDx=0;entryDy=0;" edge="1" parent="1" source="6m8UZrbuLrnwmyDjbOqj-8" target="6m8UZrbuLrnwmyDjbOqj-17">
          <mxGeometry relative="1" as="geometry" />
        </mxCell>
        <mxCell id="6m8UZrbuLrnwmyDjbOqj-8" value="Gerente de Operaciones&amp;nbsp;" style="rounded=1;whiteSpace=wrap;html=1;fillColor=#d5e8d4;strokeColor=#00CC00;" vertex="1" parent="1">
          <mxGeometry x="425" y="300" width="130" height="40" as="geometry" />
        </mxCell>
        <mxCell id="6m8UZrbuLrnwmyDjbOqj-22" style="edgeStyle=orthogonalEdgeStyle;rounded=0;orthogonalLoop=1;jettySize=auto;html=1;entryX=0.5;entryY=0;entryDx=0;entryDy=0;" edge="1" parent="1" source="6m8UZrbuLrnwmyDjbOqj-11" target="6m8UZrbuLrnwmyDjbOqj-19">
          <mxGeometry relative="1" as="geometry" />
        </mxCell>
        <mxCell id="6m8UZrbuLrnwmyDjbOqj-23" style="edgeStyle=orthogonalEdgeStyle;rounded=0;orthogonalLoop=1;jettySize=auto;html=1;entryX=0.5;entryY=0;entryDx=0;entryDy=0;" edge="1" parent="1" source="6m8UZrbuLrnwmyDjbOqj-11" target="6m8UZrbuLrnwmyDjbOqj-20">
          <mxGeometry relative="1" as="geometry" />
        </mxCell>
        <mxCell id="6m8UZrbuLrnwmyDjbOqj-24" style="edgeStyle=orthogonalEdgeStyle;rounded=0;orthogonalLoop=1;jettySize=auto;html=1;entryX=0.5;entryY=0;entryDx=0;entryDy=0;" edge="1" parent="1" source="6m8UZrbuLrnwmyDjbOqj-11" target="6m8UZrbuLrnwmyDjbOqj-21">
          <mxGeometry relative="1" as="geometry" />
        </mxCell>
        <mxCell id="6m8UZrbuLrnwmyDjbOqj-31" style="edgeStyle=orthogonalEdgeStyle;rounded=0;orthogonalLoop=1;jettySize=auto;html=1;" edge="1" parent="1" source="6m8UZrbuLrnwmyDjbOqj-11">
          <mxGeometry relative="1" as="geometry">
            <mxPoint x="940" y="500" as="targetPoint" />
          </mxGeometry>
        </mxCell>
        <mxCell id="6m8UZrbuLrnwmyDjbOqj-11" value="Gerente de People" style="rounded=1;whiteSpace=wrap;html=1;fillColor=#d5e8d4;strokeColor=#00CC00;" vertex="1" parent="1">
          <mxGeometry x="813" y="300" width="100" height="40" as="geometry" />
        </mxCell>
        <mxCell id="6m8UZrbuLrnwmyDjbOqj-16" style="edgeStyle=orthogonalEdgeStyle;rounded=0;orthogonalLoop=1;jettySize=auto;html=1;entryX=0.5;entryY=0;entryDx=0;entryDy=0;" edge="1" parent="1" source="6m8UZrbuLrnwmyDjbOqj-13" target="6m8UZrbuLrnwmyDjbOqj-14">
          <mxGeometry relative="1" as="geometry" />
        </mxCell>
        <mxCell id="6m8UZrbuLrnwmyDjbOqj-13" value="Director de Proyectos" style="rounded=1;whiteSpace=wrap;html=1;fillColor=#fad9d5;strokeColor=#ae4132;" vertex="1" parent="1">
          <mxGeometry x="425" y="400" width="132.5" height="60" as="geometry" />
        </mxCell>
        <mxCell id="6m8UZrbuLrnwmyDjbOqj-14" value="Coordinador de Proyectos" style="rounded=1;whiteSpace=wrap;html=1;fillColor=#fad9d5;strokeColor=#ae4132;" vertex="1" parent="1">
          <mxGeometry x="433.75" y="500" width="115" height="40" as="geometry" />
        </mxCell>
        <mxCell id="6m8UZrbuLrnwmyDjbOqj-17" value="Director Técnico Fabrica de Soluciones" style="rounded=1;whiteSpace=wrap;html=1;fillColor=#fad9d5;strokeColor=#ae4132;" vertex="1" parent="1">
          <mxGeometry x="570" y="400" width="110" height="60" as="geometry" />
        </mxCell>
        <mxCell id="6m8UZrbuLrnwmyDjbOqj-26" style="edgeStyle=orthogonalEdgeStyle;rounded=0;orthogonalLoop=1;jettySize=auto;html=1;entryX=0.5;entryY=0;entryDx=0;entryDy=0;" edge="1" parent="1" source="6m8UZrbuLrnwmyDjbOqj-19" target="6m8UZrbuLrnwmyDjbOqj-25">
          <mxGeometry relative="1" as="geometry" />
        </mxCell>
        <mxCell id="6m8UZrbuLrnwmyDjbOqj-19" value="Líder de Adquisición de Talento" style="rounded=1;whiteSpace=wrap;html=1;fillColor=#fad9d5;strokeColor=#ae4132;" vertex="1" parent="1">
          <mxGeometry x="700" y="400" width="90" height="60" as="geometry" />
        </mxCell>
        <mxCell id="6m8UZrbuLrnwmyDjbOqj-20" value="Líder de SST" style="rounded=1;whiteSpace=wrap;html=1;fillColor=#fad9d5;strokeColor=#ae4132;" vertex="1" parent="1">
          <mxGeometry x="809.5" y="400" width="107" height="60" as="geometry" />
        </mxCell>
        <mxCell id="6m8UZrbuLrnwmyDjbOqj-21" value="Líder de Aprendizaje y Desarrollo" style="rounded=1;whiteSpace=wrap;html=1;fillColor=#fad9d5;strokeColor=#ae4132;" vertex="1" parent="1">
          <mxGeometry x="950" y="400" width="120" height="60" as="geometry" />
        </mxCell>
        <mxCell id="6m8UZrbuLrnwmyDjbOqj-28" style="edgeStyle=orthogonalEdgeStyle;rounded=0;orthogonalLoop=1;jettySize=auto;html=1;entryX=0.5;entryY=0;entryDx=0;entryDy=0;" edge="1" parent="1" source="6m8UZrbuLrnwmyDjbOqj-25" target="6m8UZrbuLrnwmyDjbOqj-27">
          <mxGeometry relative="1" as="geometry" />
        </mxCell>
        <mxCell id="6m8UZrbuLrnwmyDjbOqj-25" value="Analista de R&amp;amp;S" style="rounded=1;whiteSpace=wrap;html=1;fillColor=#eeeeee;strokeColor=#36393d;" vertex="1" parent="1">
          <mxGeometry x="695" y="500" width="100" height="50" as="geometry" />
        </mxCell>
        <mxCell id="6m8UZrbuLrnwmyDjbOqj-27" value="Analistas de Selección" style="rounded=1;whiteSpace=wrap;html=1;fillColor=#eeeeee;strokeColor=#36393d;" vertex="1" parent="1">
          <mxGeometry x="690" y="585" width="110" height="45" as="geometry" />
        </mxCell>
        <mxCell id="6m8UZrbuLrnwmyDjbOqj-29" value="Auxiliar de Bienestar y Calidad de Vida" style="rounded=1;whiteSpace=wrap;html=1;fillColor=#eeeeee;strokeColor=#36393d;" vertex="1" parent="1">
          <mxGeometry x="880" y="500" width="120" height="50" as="geometry" />
        </mxCell>
      </root>
    </mxGraphModel>
  </diagram>
</mxfile>
